<?xml version="1.0" encoding="utf-8"?>
<!-- Generator: Adobe Illustrator 16.0.0, SVG Export Plug-In . SVG Version: 6.00 Build 0)  -->
<!DOCTYPE svg PUBLIC "-//W3C//DTD SVG 1.1//EN" "http://www.w3.org/Graphics/SVG/1.1/DTD/svg11.dtd">
<svg version="1.1" id="faved.svg_1_" xmlns="http://www.w3.org/2000/svg" xmlns:xlink="http://www.w3.org/1999/xlink" x="0px"
	 y="0px" width="13.036px" height="12.987px" viewBox="0 0 13.036 12.987" enable-background="new 0 0 13.036 12.987"
	 xml:space="preserve">
<g id="faved.svg">
	<g>
		<path fill-rule="evenodd" clip-rule="evenodd" fill="#E9DD5C" d="M13.024,4.93c-0.034-0.108-0.131-0.183-0.241-0.183L8.588,4.206
			l-1.83-4.023C6.725,0.074,6.627,0.001,6.518,0c-0.109,0-0.207,0.074-0.24,0.183l-1.84,4.023L0.253,4.747
			c-0.109,0-0.207,0.074-0.24,0.183c-0.034,0.108,0.003,0.229,0.091,0.296l3.059,3.137l-0.774,4.278
			c-0.034,0.108,0.003,0.229,0.091,0.296c0.089,0.066,0.209,0.066,0.297,0l3.741-1.992l3.732,1.992
			c0.044,0.033,0.097,0.051,0.149,0.051c0.052,0,0.104-0.018,0.148-0.051c0.089-0.068,0.126-0.187,0.092-0.296L9.863,8.363
			l3.069-3.138C13.021,5.158,13.058,5.038,13.024,4.93z M1.73,5.646C1.666,5.594,1.638,5.503,1.663,5.42
			C1.688,5.338,1.76,5.281,1.841,5.281L1.73,5.646z M3.491,11.521c-0.066-0.051-0.093-0.142-0.068-0.225l0.288,0.225
			C3.646,11.572,3.556,11.572,3.491,11.521z M6.303,1.803C6.328,1.721,6.4,1.664,6.481,1.664c0.081,0,0.153,0.057,0.178,0.14
			L6.303,1.803z M9.465,11.521c-0.033,0.026-0.071,0.039-0.11,0.039s-0.077-0.013-0.11-0.039l0.289-0.225
			C9.559,11.379,9.532,11.47,9.465,11.521z M11.231,5.646l-0.11-0.364c0.081,0,0.153,0.057,0.178,0.14
			C11.324,5.503,11.296,5.595,11.231,5.646z"/>
	</g>
</g>
</svg>
